<?xml version="1.0" standalone="no"?>
<!DOCTYPE svg PUBLIC "-//W3C//DTD SVG 20010904//EN"
 "http://www.w3.org/TR/2001/REC-SVG-20010904/DTD/svg10.dtd">
<svg version="1.0" xmlns="http://www.w3.org/2000/svg"
 width="729.000000pt" height="639.000000pt" viewBox="0 0 729.000000 639.000000"
 preserveAspectRatio="xMidYMid meet">

<g transform="translate(0.000000,639.000000) scale(0.100000,-0.100000)"
fill="#000000" stroke="none">
<path d="M1683 6353 c-15 -21 -30 -40 -33 -43 -19 -17 -40 -62 -34 -72 4 -7 3
-8 -5 -4 -14 9 -75 -118 -115 -239 -72 -216 -75 -491 -6 -689 l20 -59 -48 7
c-206 30 -283 30 -451 0 -235 -42 -471 -170 -637 -347 -346 -368 -422 -913
-187 -1358 203 -386 605 -629 1040 -629 151 0 363 36 363 62 0 11 97 208 120
245 12 18 7 28 -41 91 -30 39 -60 71 -68 72 -8 0 -79 -25 -157 -55 -79 -30
-146 -55 -149 -55 -3 0 -5 6 -5 13 0 7 62 36 143 67 78 29 145 56 149 59 4 3
-5 20 -20 38 l-27 31 -129 -49 c-130 -50 -156 -56 -156 -40 0 5 48 28 108 51
59 22 119 46 135 53 l27 12 -22 32 c-13 18 -27 33 -31 33 -5 0 -61 -21 -124
-46 -78 -30 -119 -42 -126 -35 -7 7 1 15 24 25 40 18 155 61 187 71 17 5 21
12 16 29 -3 14 3 32 18 51 21 26 21 28 3 23 -40 -12 -215 -77 -234 -88 -24
-12 -61 -13 -61 -1 0 5 6 11 13 14 6 2 82 30 167 62 145 54 191 75 162 75 -17
0 -79 156 -103 259 -17 76 -12 226 12 338 l22 104 -25 27 c-14 15 -31 37 -37
50 -9 17 -20 22 -51 22 -21 0 -42 -4 -45 -10 -3 -5 -30 -7 -63 -4 -79 8 -162
-23 -218 -82 -23 -24 -50 -44 -62 -44 -53 0 -88 -78 -62 -140 7 -17 39 -49 75
-75 174 -124 258 -237 331 -449 13 -38 23 -70 21 -71 -1 -1 -31 -12 -67 -24
-36 -13 -70 -28 -77 -33 -22 -18 -49 10 -72 77 -42 119 -144 245 -293 362
-303 239 -256 714 86 881 84 41 138 54 226 55 242 3 447 -151 515 -387 19 -65
17 -198 -5 -336 -20 -123 -10 -239 30 -352 l34 -96 187 -82 187 -82 75 65 c41
36 107 88 146 117 39 28 71 55 71 58 0 4 -20 111 -45 237 -25 127 -45 231 -45
232 0 2 23 14 50 28 49 25 51 27 44 59 l-6 34 47 -10 c37 -8 54 -6 88 7 40 16
42 16 57 -3 9 -11 25 -22 36 -24 17 -3 20 -15 25 -128 5 -129 10 -144 76 -264
12 -23 13 -33 4 -48 -15 -24 -14 -74 3 -90 7 -8 16 -49 20 -98 7 -89 23 -194
32 -220 12 -30 25 34 19 90 -6 53 -5 54 8 25 19 -42 80 -93 119 -100 18 -4
121 -5 229 -3 189 3 197 4 232 28 58 40 77 84 77 179 l0 81 49 0 48 0 5 -83
c7 -99 24 -137 80 -175 41 -27 43 -27 237 -30 120 -2 210 1 232 7 51 15 89 48
110 95 l18 40 -6 -75 c-4 -49 -2 -79 5 -83 15 -9 32 80 39 197 4 68 11 103 21
113 11 12 13 30 9 77 -5 55 -3 67 22 107 52 84 55 102 56 303 0 177 1 190 20
203 19 15 18 15 -10 10 -16 -4 -25 -4 -18 0 9 4 9 10 1 23 -12 20 10 78 29 74
15 -3 29 60 15 65 -7 2 -8 12 -4 25 4 12 7 48 6 80 -1 53 1 57 22 57 15 0 23
-6 23 -17 2 -86 0 -127 -4 -131 -3 -3 -5 11 -5 31 0 20 -3 38 -7 40 -5 3 -8
-33 -8 -79 1 -81 0 -84 -22 -84 -19 0 -23 -5 -23 -29 0 -63 40 -49 77 27 23
47 28 69 27 125 -1 38 -7 74 -13 80 -6 6 -11 18 -10 27 0 10 2 11 6 3 7 -18
46 4 39 22 -3 8 0 12 7 9 7 -2 28 11 47 31 34 35 37 51 6 39 -14 -5 -15 -9 -4
-16 9 -6 5 -7 -11 -3 -16 5 -21 4 -17 -4 5 -7 1 -9 -8 -5 -9 3 -16 2 -16 -4 0
-6 6 -13 13 -15 9 -4 9 -6 0 -6 -19 -1 -26 19 -11 36 11 14 10 15 -12 8 -22
-7 -23 -6 -11 9 11 13 17 14 28 4 12 -10 18 -7 33 12 12 16 15 27 8 31 -6 4
-2 15 11 28 11 11 21 17 21 12 0 -6 -4 -13 -10 -16 -16 -10 -12 -21 13 -34 12
-6 14 -9 5 -7 -20 6 -25 -9 -7 -20 14 -8 53 31 45 45 -4 6 -12 11 -17 11 -6 0
-7 -4 -4 -10 3 -6 -1 -7 -10 -4 -14 6 -14 8 2 19 14 11 15 16 5 28 -7 9 -9 18
-4 21 11 6 44 -27 40 -40 -2 -5 2 -10 7 -11 6 -1 9 5 7 14 -2 9 1 12 8 8 6 -4
20 1 31 11 21 19 19 62 -3 75 -7 4 -9 11 -5 15 8 9 43 -36 39 -49 -1 -5 2 -5
8 -2 6 4 9 14 6 22 -3 8 -1 11 5 8 14 -9 51 26 45 42 -4 9 1 13 12 11 11 -2
16 3 14 14 -2 11 2 16 11 13 17 -7 71 54 74 83 1 12 -2 20 -8 17 -5 -4 -9 -1
-9 5 0 8 7 9 18 5 31 -13 47 -10 46 8 -1 11 4 16 15 15 10 -2 15 3 15 14 -1
10 3 15 8 12 19 -12 47 27 42 56 -4 15 -1 31 5 34 6 4 11 2 11 -3 0 -6 8 -11
18 -11 14 0 15 2 2 10 -13 8 -12 10 3 10 9 0 20 0 24 0 4 0 8 -6 9 -15 1 -8
-4 -15 -12 -15 -8 0 -14 -5 -14 -10 0 -18 44 -28 90 -19 l45 8 -43 -2 c-38 -2
-41 -1 -25 10 9 8 23 11 30 9 6 -3 29 -8 50 -12 35 -7 36 -8 13 -15 l-25 -7
27 -1 c15 -1 30 4 33 10 4 6 13 8 19 6 7 -3 19 -1 27 4 11 7 11 9 1 9 -7 0
-10 5 -7 10 5 8 12 7 23 -2 12 -10 16 -10 19 0 3 6 10 12 16 12 7 0 25 10 41
23 l28 23 -28 -1 c-21 0 -29 -5 -28 -17 1 -10 -1 -17 -5 -16 -3 0 -8 -1 -11
-2 -16 -7 -70 -6 -70 1 0 5 16 9 35 9 19 0 35 4 35 9 0 18 -19 22 -39 9 -11
-7 -23 -9 -27 -5 -12 12 3 19 45 20 23 1 41 5 41 8 0 3 7 6 15 6 8 0 11 -5 8
-10 -4 -6 1 -8 11 -4 10 4 22 7 27 7 5 0 9 10 9 23 0 12 7 33 16 45 9 13 13
26 9 30 -3 3 -10 0 -16 -8 -7 -11 -8 -7 -3 13 6 26 5 28 -18 22 -19 -5 -28 -1
-42 20 -17 26 -40 26 -29 0 4 -11 1 -13 -11 -9 -19 7 -22 -12 -3 -20 6 -2 1
-4 -13 -3 -19 2 -25 -3 -23 -16 0 -12 -4 -16 -13 -13 -9 3 -14 -1 -14 -14 0
-16 -5 -18 -37 -13 -21 3 -40 10 -43 14 -3 4 -23 9 -45 11 -29 2 -39 -1 -37
-10 1 -8 -2 -11 -10 -6 -7 4 -10 4 -6 -1 4 -4 18 -13 30 -19 27 -14 31 -48 5
-52 -9 -1 -15 2 -12 6 3 5 -4 12 -16 15 -17 6 -19 9 -8 17 10 7 8 8 -9 5 -18
-4 -21 -3 -12 8 7 8 7 15 1 19 -5 3 -7 15 -4 26 3 11 1 20 -5 20 -6 0 -12 -10
-14 -22 -2 -18 -11 -24 -35 -26 -26 -3 -33 -8 -33 -25 -1 -20 -2 -20 -11 -4
-5 9 -16 17 -23 17 -13 0 -14 1 -18 67 -2 31 1 43 12 46 12 3 14 -6 12 -50 -3
-43 -1 -53 12 -53 9 0 16 3 16 8 0 4 11 12 25 19 17 8 25 8 25 0 0 -6 3 -8 6
-4 3 3 2 12 -2 19 -5 7 -7 23 -5 36 1 12 -2 22 -7 22 -5 0 -13 25 -17 57 -4
36 -10 51 -15 43 -19 -31 -36 -18 -34 24 3 58 3 58 15 51 13 -8 51 25 46 39
-4 13 29 47 37 39 9 -9 47 29 43 41 -4 13 29 47 37 39 8 -8 46 27 46 43 0 7 5
16 12 20 7 5 8 3 3 -5 -6 -10 -2 -10 16 0 l24 14 -24 3 c-19 3 -21 6 -10 13 9
6 -14 8 -65 5 -48 -3 -83 -10 -87 -18 -4 -7 -11 -9 -15 -6 -3 4 -21 -4 -39
-17 -17 -14 -36 -25 -42 -25 -12 0 -53 -43 -53 -56 0 -5 -9 -18 -21 -27 -11
-10 -18 -25 -15 -33 4 -10 2 -12 -6 -8 -8 5 -9 0 -3 -17 16 -49 17 -212 2
-257 -9 -26 -11 -45 -5 -48 5 -3 0 -17 -13 -30 -12 -13 -19 -30 -16 -38 8 -22
-23 -52 -34 -34 -12 18 -36 -8 -43 -46 -6 -33 -27 -51 -38 -33 -8 14 -48 -19
-48 -40 0 -7 -4 -13 -10 -13 -16 0 -12 37 5 44 8 3 15 11 15 19 0 7 10 13 21
13 12 -1 24 5 26 12 3 7 -3 12 -14 12 -24 0 -171 -142 -165 -160 3 -7 -1 -11
-9 -8 -14 5 -69 -52 -69 -72 0 -6 -5 -10 -12 -8 -17 6 -76 -54 -70 -71 3 -8 0
-12 -9 -9 -16 5 -65 -40 -54 -50 4 -4 16 4 27 17 16 20 23 23 37 14 11 -7 23
-8 32 -2 10 6 11 9 1 9 -25 0 -23 28 4 55 22 23 31 26 45 17 12 -8 20 -8 24
-2 3 6 -2 10 -12 11 -10 0 -13 3 -5 6 6 2 12 9 12 15 0 11 25 38 36 38 3 0 1
-7 -6 -15 -7 -8 -10 -24 -7 -35 3 -11 -1 -27 -10 -35 -17 -17 -33 -20 -33 -5
0 6 -7 10 -15 10 -20 0 -19 -16 1 -24 8 -3 12 -10 9 -16 -9 -15 -25 -12 -25 5
0 8 -4 15 -10 15 -15 0 -12 -28 5 -37 12 -7 9 -12 -15 -26 -17 -10 -30 -13
-30 -8 0 6 -7 11 -15 11 -8 0 -15 -7 -15 -15 0 -8 -5 -15 -11 -15 -8 0 -8 -4
1 -15 14 -17 5 -36 -14 -29 -24 9 -31 -18 -31 -129 0 -104 1 -107 18 -86 15
19 17 19 17 3 0 -9 -8 -27 -17 -38 -15 -18 -16 -19 -1 -8 14 11 17 10 20 -5 7
-36 -4 -94 -17 -89 -7 2 -17 0 -23 -6 -18 -18 -21 6 -12 106 7 79 5 109 -8
155 -9 31 -16 71 -16 89 0 30 -10 44 -18 22 -2 -6 -23 25 -48 67 -25 43 -67
100 -94 128 l-50 50 -7 -52 c-14 -110 -82 -174 -203 -192 -87 -13 -190 -15
-184 -3 43 84 85 201 110 302 18 74 18 386 0 460 -41 164 -99 299 -185 427
l-62 93 -907 0 -907 0 -28 -37z m3480 -193 l32 -1 -32 -14 c-18 -8 -33 -18
-33 -24 0 -5 -9 -8 -20 -6 -11 2 -22 0 -25 -6 -4 -5 -15 -9 -26 -9 -26 0 -24
-19 4 -30 16 -6 17 -9 5 -9 -9 -1 -19 -9 -22 -18 -4 -15 -5 -15 -4 2 1 34 -2
38 -15 27 -8 -7 -18 -7 -27 -2 -13 8 -12 10 3 10 9 0 17 5 17 10 0 15 -16 12
-29 -4 -10 -11 -8 -16 5 -24 16 -9 16 -12 4 -29 -14 -17 -14 -17 3 -4 9 8 20
11 23 9 7 -8 -25 -38 -42 -38 -15 0 -30 43 -20 59 4 5 2 12 -4 16 -6 4 -10 -6
-10 -23 0 -16 -7 -35 -15 -42 -8 -7 -15 -18 -15 -25 0 -7 -7 -15 -15 -19 -21
-8 -19 17 5 47 11 14 20 33 20 42 0 9 7 23 15 31 8 9 15 13 15 10 0 -3 16 3
35 14 41 23 49 25 38 8 -4 -7 5 -5 20 5 14 9 34 17 43 17 11 0 14 5 10 16 -5
12 -2 15 10 10 8 -3 30 -6 47 -6z m5 -42 c-2 -6 -10 -14 -16 -16 -7 -2 -10 2
-6 12 7 18 28 22 22 4z m-80 -80 c-2 -6 -10 -14 -16 -16 -7 -2 -10 2 -6 12 7
18 28 22 22 4z m-128 -33 c0 -8 -4 -15 -10 -15 -5 0 -7 7 -4 15 4 8 8 15 10
15 2 0 4 -7 4 -15z m-2822 -37 c-3 -22 -8 -23 -100 -26 l-98 -3 0 26 0 25 101
0 c98 0 100 0 97 -22z m172 -3 c0 -24 -2 -25 -75 -25 -73 0 -75 1 -75 25 0 24
2 25 75 25 73 0 75 -1 75 -25z m390 0 l0 -25 -180 0 -180 0 0 25 0 25 180 0
180 0 0 -25z m2288 18 c-10 -2 -18 -12 -18 -20 0 -9 -3 -14 -6 -10 -12 11 5
37 23 36 17 -1 17 -2 1 -6z m20 -25 c-2 -6 -10 -14 -16 -16 -7 -2 -10 2 -6 12
7 18 28 22 22 4z m-2763 -78 c0 -22 -5 -25 -42 -28 -42 -3 -43 -2 -43 28 0 30
1 31 43 28 37 -3 42 -6 42 -28z m835 0 l0 -30 -400 0 c-347 0 -401 2 -406 15
-4 8 -4 22 0 30 5 13 59 15 406 15 l400 0 0 -30z m238 3 l-3 -28 -102 -3 -103
-3 0 31 0 30 106 0 105 0 -3 -27z m1609 -90 c-2 -21 -4 -4 -4 37 0 41 2 58 4
38 2 -21 2 -55 0 -75z m-1937 2 l0 -25 -325 0 -325 0 0 25 0 25 325 0 325 0 0
-25z m210 0 c0 -25 0 -25 -94 -25 -93 0 -93 0 -93 25 0 25 0 25 93 25 94 0 94
0 94 -25z m1790 -25 c5 0 11 10 13 23 4 19 4 19 5 2 1 -11 -3 -27 -8 -35 -9
-13 -11 -13 -20 0 -5 8 -9 24 -8 35 1 17 1 17 5 -2 2 -13 8 -23 13 -23z
m-2785 -55 c0 -13 -8 -21 -22 -23 -19 -3 -23 1 -23 23 0 22 4 26 23 23 14 -2
22 -10 22 -23z m1045 0 l0 -25 -505 0 -505 0 0 25 0 25 505 0 505 0 0 -25z
m70 0 c0 -18 -5 -25 -20 -25 -15 0 -20 7 -20 25 0 18 5 25 20 25 15 0 20 -7
20 -25z m2040 -37 c0 -4 -6 -8 -14 -8 -8 0 -17 4 -20 8 -2 4 4 8 15 8 10 0 19
-4 19 -8z m-440 -22 c0 -7 -9 -16 -20 -19 -11 -3 -20 -1 -20 4 0 5 5 9 11 9 5
0 7 5 4 10 -3 6 1 10 9 10 9 0 16 -6 16 -14z m464 8 c9 -3 13 -10 10 -15 -3
-5 1 -6 9 -3 9 3 16 -3 19 -14 5 -17 2 -18 -28 -12 -18 4 -34 4 -36 -1 -2 -5
-14 -2 -28 8 l-24 17 30 13 c16 6 30 12 31 13 1 0 8 -3 17 -6z m-3066 -36 c3
-25 0 -28 -27 -28 -28 0 -31 3 -31 31 0 27 3 30 28 27 21 -2 28 -9 30 -30z
m-268 2 c0 -18 -7 -20 -55 -20 -48 0 -55 2 -55 20 0 18 7 20 55 20 48 0 55 -2
55 -20z m165 0 c0 -12 -15 -16 -67 -18 -63 -3 -68 -1 -68 18 0 19 5 21 68 18
52 -2 67 -6 67 -18z m3028 4 c3 -4 -4 -15 -16 -25 -27 -23 -10 -25 21 -3 25
17 43 11 24 -8 -11 -11 -78 -38 -94 -38 -5 0 -8 7 -8 16 0 11 6 14 21 9 14 -5
19 -3 15 4 -4 6 -2 20 4 31 11 20 22 25 33 14z m-373 -23 c0 -12 -20 -25 -27
-18 -7 7 6 27 18 27 5 0 9 -4 9 -9z m160 -6 c0 -23 -4 -30 -17 -29 -13 2 -25
-46 -20 -81 3 -26 -36 -29 -51 -4 -9 15 -8 19 8 24 10 3 25 22 32 41 6 18 16
34 20 34 4 0 8 7 8 15 0 8 5 15 10 15 6 0 10 -7 10 -15z m-2660 -60 l0 -25
-105 0 -105 0 0 25 0 25 105 0 105 0 0 -25z m460 0 l0 -25 -210 0 -210 0 0 25
0 25 210 0 210 0 0 -25z m80 0 c0 -22 -4 -25 -35 -25 -31 0 -35 3 -35 25 0 22
4 25 35 25 31 0 35 -3 35 -25z m2310 1 c0 -11 -19 -15 -25 -6 -3 5 1 10 9 10
9 0 16 -2 16 -4z m-436 -21 c-4 -8 -8 -15 -10 -15 -2 0 -4 7 -4 15 0 8 4 15
10 15 5 0 7 -7 4 -15z m-2484 -60 c0 -16 -6 -25 -15 -25 -9 0 -15 9 -15 25 0
16 6 25 15 25 9 0 15 -9 15 -25z m170 0 c0 -24 -2 -25 -70 -25 -68 0 -70 1
-70 25 0 24 2 25 70 25 68 0 70 -1 70 -25z m620 0 l0 -25 -300 0 -300 0 0 25
0 25 300 0 300 0 0 -25z m170 0 c0 -24 -2 -25 -70 -25 -68 0 -70 1 -70 25 0
24 2 25 70 25 68 0 70 -1 70 -25z m1673 1 c4 -10 1 -13 -9 -9 -7 3 -14 9 -14
14 0 14 17 10 23 -5z m-229 -18 c-15 -25 -58 -53 -76 -50 -10 2 -18 -2 -18 -8
0 -6 5 -8 11 -4 7 4 10 1 7 -6 -2 -8 -10 -16 -18 -18 -7 -3 -10 0 -6 7 4 6 2
11 -5 11 -6 0 -9 -8 -6 -20 3 -14 -4 -30 -25 -50 -34 -34 -38 -36 -38 -15 0 8
7 15 16 15 13 0 14 3 5 14 -9 11 -8 17 4 29 8 9 15 20 15 26 0 6 7 11 15 11 8
0 15 9 15 19 0 10 7 22 16 25 8 3 12 2 9 -4 -4 -6 5 -10 20 -10 18 0 29 6 32
20 3 11 12 20 20 20 9 0 11 -5 7 -12z m196 3 c0 -5 -7 -11 -14 -14 -10 -4 -13
-1 -9 9 6 15 23 19 23 5z m17 -25 c0 -8 -6 -12 -15 -9 -11 5 -11 7 0 14 7 5
13 9 14 9 0 0 1 -6 1 -14z m-2515 -22 c11 -3 18 -15 18 -30 0 -23 -2 -24 -75
-24 l-75 0 0 28 c0 27 2 28 57 30 32 1 65 -1 75 -4z m558 -24 l0 -30 -255 0
c-218 0 -256 2 -261 15 -16 41 -7 43 260 44 l256 2 0 -31z m344 24 c9 -3 16
-17 16 -30 l0 -24 -145 0 -145 0 0 23 c0 13 3 27 7 30 8 9 246 9 267 1z m1553
-24 c3 -11 10 -20 16 -20 6 0 7 -3 4 -7 -7 -6 -47 30 -47 42 0 14 23 2 27 -15z
m-37 -4 c0 -2 -7 -9 -15 -16 -13 -11 -14 -10 -9 4 5 14 24 23 24 12z m16 -44
c1 -7 0 -8 -3 -2 -7 15 -26 12 -20 -3 3 -8 -1 -14 -9 -14 -17 0 -18 9 -2 25
14 14 31 11 34 -6z m-2336 -37 l0 -25 -115 0 -115 0 0 25 0 25 115 0 115 0 0
-25z m570 0 l0 -25 -264 0 c-253 0 -264 1 -269 19 -3 11 -2 22 1 25 3 3 124 6
269 6 l263 0 0 -25z m1703 11 c4 -10 1 -13 -9 -9 -7 3 -14 9 -14 14 0 14 17
10 23 -5z m-33 -10 c0 -2 -7 -9 -15 -16 -13 -11 -14 -10 -9 4 5 14 24 23 24
12z m15 -36 c3 -6 -1 -7 -9 -4 -9 3 -16 2 -16 -4 0 -6 6 -12 13 -15 6 -3 2 -4
-10 -4 -26 1 -28 8 -11 25 15 15 25 15 33 2z m-1965 -45 l0 -25 -315 0 -315 0
0 25 0 25 315 0 315 0 0 -25z m1854 -16 c-19 -21 -19 -22 3 -15 24 8 41 -10
25 -26 -8 -8 -18 -6 -36 6 -25 16 -25 17 -8 35 9 11 21 20 26 20 5 1 1 -9 -10
-20z m-1785 -75 l-22 -24 -399 0 -398 0 0 25 0 25 393 2 c215 2 405 1 420 -1
l28 -3 -22 -24z m-851 4 c-2 -18 -11 -24 -35 -26 -30 -3 -33 -1 -33 22 0 23 4
26 36 26 31 0 35 -3 32 -22z m2376 1 c-3 -5 -10 -7 -15 -3 -5 3 -7 10 -3 15 3
5 10 7 15 3 5 -3 7 -10 3 -15z m146 -48 c0 -6 -4 -13 -10 -16 -5 -3 -10 1 -10
9 0 9 5 16 10 16 6 0 10 -4 10 -9z m-178 -33 c3 -28 8 -34 31 -36 20 -2 27 -8
23 -18 -3 -8 -1 -14 4 -14 6 0 10 -4 10 -9 0 -5 -18 -11 -40 -15 -31 -5 -40
-11 -40 -26 0 -11 -4 -20 -10 -20 -5 0 -9 11 -8 25 2 19 11 28 38 37 l35 11
-27 9 c-16 6 -28 14 -28 20 0 6 -7 8 -15 4 -9 -3 -15 0 -15 10 0 9 5 12 11 8
9 -5 10 1 5 20 -5 19 -3 26 8 26 9 0 16 -12 18 -32z m111 -60 c-2 -5 1 -15 7
-23 10 -12 9 -15 -4 -15 -22 0 -42 50 -24 61 13 9 30 -10 21 -23z m-17 -224
c-4 -9 -9 -15 -11 -12 -3 3 -3 13 1 22 4 9 9 15 11 12 3 -3 3 -13 -1 -22z
m-29 -65 c-12 -20 -27 -25 -27 -10 0 5 7 11 15 15 10 4 13 15 10 38 -5 33 -5
33 4 4 7 -19 6 -34 -2 -47z m-100 -1 c-3 -7 -5 -2 -5 12 0 14 2 19 5 13 2 -7
2 -19 0 -25z m-2942 -189 c31 -25 31 -34 0 -194 -12 -64 -16 -121 -13 -195 4
-91 11 -123 50 -240 l46 -135 -31 -13 c-69 -30 -74 -26 -121 84 -24 56 -58
127 -76 159 -41 71 -133 171 -214 230 -95 71 -106 83 -106 120 0 31 21 65 39
65 5 0 11 -16 14 -36 7 -44 23 -64 51 -64 28 0 66 35 66 60 0 19 -19 43 -48
59 -43 25 62 91 156 99 49 4 54 3 49 -13 -19 -47 -18 -64 2 -84 25 -25 49 -27
79 -5 28 19 28 51 0 81 -19 20 -20 25 -8 33 22 14 35 12 65 -11z m-75 -65 c0
-8 -9 -14 -20 -14 -19 0 -28 28 -13 43 9 9 33 -12 33 -29z m1746 -73 c155 -66
361 -98 564 -87 155 8 238 25 344 71 l83 35 35 -32 c19 -18 49 -67 68 -108 40
-89 72 -203 58 -209 -5 -2 -26 12 -46 32 -21 19 -47 40 -59 46 -14 7 -96 11
-228 11 -227 0 -252 -5 -297 -59 -25 -29 -31 -31 -96 -31 -63 0 -71 2 -86 25
-9 14 -34 34 -56 45 -36 18 -58 20 -245 20 -187 0 -209 -2 -245 -20 -22 -11
-47 -31 -56 -45 -26 -39 -46 -33 -39 13 35 206 108 322 201 322 18 0 63 -13
100 -29z m-2011 -21 c0 -8 -8 -16 -17 -18 -13 -2 -18 3 -18 18 0 15 5 20 18
18 9 -2 17 -10 17 -18z m2286 -321 c29 -31 29 -33 29 -146 l0 -115 -34 -34
-34 -34 -197 0 -197 0 -34 34 -34 34 0 109 c1 180 4 182 273 183 l199 0 29
-31z m775 -3 l34 -34 -1 -98 c-1 -124 -7 -143 -48 -171 -32 -22 -43 -23 -217
-23 -100 0 -194 4 -208 10 -14 5 -33 21 -42 35 -16 25 -18 51 -15 223 1 23 10
43 30 63 l29 29 202 0 202 0 34 -34z m-1348 -183 l-2 -78 -5 70 c-3 39 -5 73
-3 78 9 20 12 0 10 -70z m1459 -15 c-2 -18 -4 -4 -4 32 0 36 2 50 4 33 2 -18
2 -48 0 -65z"/>
<path d="M4965 5494 c9 -9 19 -13 23 -10 3 4 0 11 -8 16 -24 15 -33 11 -15 -6z"/>
<path d="M4650 5170 c0 -5 5 -10 10 -10 6 0 10 5 10 10 0 6 -4 10 -10 10 -5 0
-10 -4 -10 -10z"/>
<path d="M4843 5909 c0 -31 2 -40 4 -21 2 18 9 30 14 27 13 -9 11 8 -4 29 -12
17 -14 12 -14 -35z"/>
<path d="M4977 5892 c1 -8 3 -23 4 -35 1 -20 2 -20 9 3 4 14 8 32 9 40 1 12
-1 12 -8 1 -5 -7 -11 -9 -13 -5 -3 5 -3 3 -1 -4z"/>
<path d="M4863 5830 c0 -41 2 -58 4 -37 2 20 2 54 0 75 -2 20 -4 3 -4 -38z"/>
<path d="M5500 5882 c0 -5 5 -13 12 -20 9 -9 9 -15 1 -23 -6 -6 -9 -18 -6 -25
3 -8 -1 -22 -8 -31 -10 -12 -10 -15 -1 -9 17 10 16 -35 -3 -60 -11 -15 -14
-16 -15 -3 0 8 5 20 11 26 8 8 6 14 -8 22 -15 7 -19 18 -15 40 2 17 9 31 16
31 6 0 4 5 -4 11 -12 8 -10 9 8 4 24 -7 31 9 8 18 -17 7 -40 -16 -28 -27 4 -5
-2 -6 -13 -4 -15 2 -19 -2 -17 -15 2 -9 -1 -16 -5 -15 -17 6 -53 -29 -47 -46
3 -9 10 -13 15 -10 5 3 7 10 4 15 -3 5 1 6 9 3 17 -7 22 11 6 19 -6 3 -5 4 2
3 7 -2 13 -9 13 -17 0 -8 6 -20 13 -27 6 -7 12 -20 12 -28 0 -8 5 -14 10 -14
15 0 12 -28 -6 -56 -9 -13 -14 -27 -11 -30 3 -3 18 23 35 58 36 77 52 202 27
212 -8 3 -15 2 -15 -2z m-20 -142 c0 -5 -4 -10 -10 -10 -5 0 -10 5 -10 10 0 6
5 10 10 10 6 0 10 -4 10 -10z"/>
<path d="M4823 5825 c0 -27 2 -38 4 -22 2 15 2 37 0 50 -2 12 -4 0 -4 -28z"/>
<path d="M4842 5765 c-2 -39 13 -65 21 -36 3 12 1 19 -3 16 -5 -3 -11 7 -13
22 l-4 28 -1 -30z"/>
<path d="M5090 5675 c-8 -9 -8 -15 -2 -15 12 0 26 19 19 26 -2 2 -10 -2 -17
-11z"/>
<path d="M4813 5654 c-13 -14 -23 -29 -23 -34 0 -6 -4 -10 -9 -10 -11 0 -72
-62 -66 -68 7 -8 45 20 45 33 0 11 8 13 29 9 26 -6 28 -4 24 20 -4 19 -1 26
11 26 10 0 16 9 16 25 0 29 1 29 -27 -1z"/>
<path d="M4895 5380 c-3 -5 -1 -10 4 -10 6 0 11 5 11 10 0 6 -2 10 -4 10 -3 0
-8 -4 -11 -10z"/>
<path d="M4310 5130 c0 -7 -6 -10 -13 -7 -9 3 -14 -7 -15 -37 l-1 -41 18 38
c10 20 21 34 24 30 4 -3 7 -1 7 5 0 6 -4 14 -10 17 -5 3 -10 1 -10 -5z"/>
<path d="M4402 4915 c0 -16 2 -22 5 -12 2 9 2 23 0 30 -3 6 -5 -1 -5 -18z"/>
<path d="M6080 3797 c0 -8 19 -30 41 -51 30 -26 39 -40 31 -48 -18 -18 5 -59
71 -123 81 -79 92 -93 122 -167 50 -123 72 -153 153 -205 91 -59 171 -55 250
12 48 40 72 94 72 160 0 47 -5 64 -32 103 -17 26 -43 57 -57 70 -23 20 -76 54
-91 57 -116 26 -222 81 -295 154 -52 52 -85 54 -126 6 l-31 -35 -41 40 c-41
41 -67 51 -67 27z"/>
<path d="M4860 3711 c0 -6 4 -13 10 -16 6 -3 7 1 4 9 -7 18 -14 21 -14 7z"/>
<path d="M2765 3481 c-86 -22 -314 -209 -440 -362 -280 -340 -388 -821 -285
-1266 37 -155 141 -407 195 -469 6 -7 19 -24 30 -40 41 -57 121 -150 181 -209
69 -68 83 -80 167 -141 34 -24 67 -47 72 -51 30 -22 185 -103 198 -103 4 0 27
-9 51 -19 59 -27 284 -87 336 -89 8 0 67 -4 130 -7 103 -6 296 4 358 19 137
32 303 90 397 138 98 51 96 50 137 84 7 5 28 19 46 29 17 11 32 23 32 27 0 4
4 8 9 8 5 0 30 20 57 44 28 26 54 42 63 39 12 -4 13 -2 3 4 -9 7 -5 16 17 37
21 20 30 24 35 14 4 -9 5 -9 3 2 -3 20 73 111 86 103 6 -4 7 -1 2 7 -4 7 -3
15 2 19 32 21 161 241 183 314 6 20 15 35 19 33 4 -3 7 3 8 12 1 9 8 42 17 72
31 103 46 161 47 183 0 19 2 19 11 -6 7 -19 6 -37 -1 -58 -8 -22 -8 -36 0 -48
9 -14 10 -14 5 2 -7 21 4 53 13 38 4 -5 6 8 6 29 0 21 -3 37 -6 34 -14 -8 -17
54 -7 131 14 102 14 154 0 290 -38 357 -185 670 -426 910 -132 130 -281 237
-347 248 l-35 5 -20 -56 c-19 -56 -72 -146 -115 -197 -39 -44 -155 -116 -232
-142 -88 -31 -292 -43 -403 -24 -221 38 -429 141 -477 238 -8 15 -27 63 -42
106 -15 42 -33 77 -39 76 -6 -1 -24 -4 -41 -8z m1034 -678 c14 -100 21 -90
-94 -129 -66 -23 -102 -28 -205 -32 -135 -4 -217 9 -312 50 l-50 21 7 61 c10
91 15 108 34 103 9 -3 56 -16 105 -31 67 -20 110 -26 181 -26 94 0 218 24 272
54 15 8 33 15 38 16 6 0 17 -39 24 -87z"/>
<path d="M5071 2193 c1 -53 6 -49 11 10 2 20 0 37 -4 37 -4 0 -8 -21 -7 -47z"/>
<path d="M5050 2108 c-3 -26 -1 -43 3 -39 5 5 7 26 5 47 l-3 39 -5 -47z"/>
<path d="M5072 2050 c0 -14 2 -19 5 -12 2 6 2 18 0 25 -3 6 -5 1 -5 -13z"/>
<path d="M5052 2005 c0 -16 2 -22 5 -12 2 9 2 23 0 30 -3 6 -5 -1 -5 -18z"/>
<path d="M5081 2010 c0 -8 4 -22 9 -30 12 -18 12 -2 0 25 -6 13 -9 15 -9 5z"/>
<path d="M5062 1930 c0 -14 2 -19 5 -12 2 6 2 18 0 25 -3 6 -5 1 -5 -13z"/>
<path d="M5041 1924 c0 -11 3 -14 6 -6 3 7 2 16 -1 19 -3 4 -6 -2 -5 -13z"/>
<path d="M5081 1914 c0 -11 3 -14 6 -6 3 7 2 16 -1 19 -3 4 -6 -2 -5 -13z"/>
<path d="M4902 1778 c-7 -7 -12 -16 -12 -21 0 -5 7 -1 16 8 9 9 14 18 12 20
-2 3 -10 -1 -16 -7z"/>
<path d="M4946 1775 c-9 -26 -7 -32 5 -12 6 10 9 21 6 23 -2 3 -7 -2 -11 -11z"/>
<path d="M5035 1750 c-3 -5 -1 -10 4 -10 6 0 11 5 11 10 0 6 -2 10 -4 10 -3 0
-8 -4 -11 -10z"/>
<path d="M5015 1699 c-4 -6 -5 -12 -2 -15 2 -3 7 2 10 11 7 17 1 20 -8 4z"/>
<path d="M4972 1680 c0 -14 2 -19 5 -12 2 6 2 18 0 25 -3 6 -5 1 -5 -13z"/>
<path d="M4962 1630 c0 -14 2 -19 5 -12 2 6 2 18 0 25 -3 6 -5 1 -5 -13z"/>
<path d="M4858 1613 c-3 -12 0 -20 8 -20 16 0 17 6 5 25 -6 11 -9 9 -13 -5z"/>
<path d="M1991 1544 c0 -11 3 -14 6 -6 3 7 2 16 -1 19 -3 4 -6 -2 -5 -13z"/>
<path d="M4966 1543 c-6 -14 -5 -15 5 -6 7 7 10 15 7 18 -3 3 -9 -2 -12 -12z"/>
<path d="M4872 1530 c0 -14 2 -19 5 -12 2 6 2 18 0 25 -3 6 -5 1 -5 -13z"/>
<path d="M2088 1523 c6 -2 18 -2 25 0 6 3 1 5 -13 5 -14 0 -19 -2 -12 -5z"/>
<path d="M4920 1469 c0 -5 5 -7 10 -4 6 3 10 8 10 11 0 2 -4 4 -10 4 -5 0 -10
-5 -10 -11z"/>
<path d="M2160 1451 c0 -6 4 -13 10 -16 6 -3 7 1 4 9 -7 18 -14 21 -14 7z"/>
<path d="M4897 1415 c-23 -49 -21 -57 4 -16 11 18 19 37 17 43 -2 5 -11 -7
-21 -27z"/>
<path d="M4760 1406 c0 -8 5 -18 10 -21 6 -3 10 1 10 9 0 8 -4 18 -10 21 -5 3
-10 -1 -10 -9z"/>
<path d="M4730 1371 c0 -6 5 -13 10 -16 6 -3 10 1 10 9 0 9 -4 16 -10 16 -5 0
-10 -4 -10 -9z"/>
<path d="M4770 1360 c0 -5 5 -10 10 -10 6 0 10 5 10 10 0 6 -4 10 -10 10 -5 0
-10 -4 -10 -10z"/>
<path d="M4853 1338 c-18 -24 -24 -38 -16 -38 4 0 13 11 20 25 12 27 11 32 -4
13z"/>
<path d="M2100 1324 c0 -6 7 -19 15 -30 8 -10 14 -14 14 -9 0 6 -6 19 -14 29
-8 11 -15 15 -15 10z"/>
<path d="M4811 1323 c-1 -6 -4 -20 -7 -30 -5 -17 -5 -17 6 0 6 10 9 23 6 30
-3 9 -5 9 -5 0z"/>
<path d="M4700 1311 c0 -5 5 -13 10 -16 6 -3 10 -2 10 4 0 5 -4 13 -10 16 -5
3 -10 2 -10 -4z"/>
<path d="M2250 1300 c0 -5 5 -10 11 -10 5 0 7 5 4 10 -3 6 -8 10 -11 10 -2 0
-4 -4 -4 -10z"/>
<path d="M2151 1284 c0 -11 3 -14 6 -6 3 7 2 16 -1 19 -3 4 -6 -2 -5 -13z"/>
<path d="M4800 1255 c-7 -9 -8 -15 -2 -15 5 0 12 7 16 15 3 8 4 15 2 15 -2 0
-9 -7 -16 -15z"/>
<path d="M2190 1250 c0 -5 5 -10 10 -10 6 0 10 5 10 10 0 6 -4 10 -10 10 -5 0
-10 -4 -10 -10z"/>
<path d="M4730 1250 c0 -5 5 -10 10 -10 6 0 10 5 10 10 0 6 -4 10 -10 10 -5 0
-10 -4 -10 -10z"/>
<path d="M2172 1214 c10 -10 20 -15 24 -12 3 4 -5 12 -18 18 -22 12 -22 12 -6
-6z"/>
<path d="M4760 1220 c0 -5 5 -10 10 -10 6 0 10 5 10 10 0 6 -4 10 -10 10 -5 0
-10 -4 -10 -10z"/>
<path d="M4600 1205 c-7 -9 -8 -15 -2 -15 5 0 12 7 16 15 3 8 4 15 2 15 -2 0
-9 -7 -16 -15z"/>
<path d="M4713 1153 c-13 -8 -23 -22 -23 -29 0 -8 -5 -14 -12 -14 -6 0 -8 -3
-5 -7 7 -6 23 9 56 50 16 21 13 21 -16 0z"/>
<path d="M4545 1141 c4 -8 2 -17 -6 -22 -9 -6 -10 -9 -2 -9 19 0 27 21 13 33
-10 9 -11 9 -5 -2z"/>
<path d="M4650 1134 c0 -8 5 -12 10 -9 6 3 10 10 10 16 0 5 -4 9 -10 9 -5 0
-10 -7 -10 -16z"/>
<path d="M2270 1095 c7 -9 15 -13 17 -11 7 7 -7 26 -19 26 -6 0 -6 -6 2 -15z"/>
<path d="M4615 1090 c-3 -5 1 -10 9 -10 9 0 16 -5 16 -12 0 -6 2 -9 5 -6 7 7
-5 38 -15 38 -5 0 -12 -4 -15 -10z"/>
<path d="M4456 1065 c-11 -8 -15 -15 -9 -15 6 0 16 7 23 15 16 19 11 19 -14 0z"/>
<path d="M2486 1055 c4 -8 11 -15 16 -15 6 0 5 6 -2 15 -7 8 -14 15 -16 15 -2
0 -1 -7 2 -15z"/>
<path d="M4599 1058 c-7 -13 -4 -46 3 -42 4 3 6 9 3 14 -3 5 3 13 12 19 17 10
17 10 1 11 -10 0 -19 -1 -19 -2z"/>
<path d="M2382 1016 c7 -8 15 -12 17 -11 5 6 -10 25 -20 25 -5 0 -4 -6 3 -14z"/>
<path d="M4515 1010 c-3 -5 -1 -10 4 -10 6 0 11 5 11 10 0 6 -2 10 -4 10 -3 0
-8 -4 -11 -10z"/>
<path d="M4550 1016 c0 -2 8 -10 18 -17 15 -13 16 -12 3 4 -13 16 -21 21 -21
13z"/>
<path d="M4370 986 c0 -2 7 -9 15 -16 9 -7 15 -8 15 -2 0 5 -7 12 -15 16 -8 3
-15 4 -15 2z"/>
<path d="M4525 970 c-3 -5 -2 -10 4 -10 5 0 13 5 16 10 3 6 2 10 -4 10 -5 0
-13 -4 -16 -10z"/>
<path d="M2420 946 c0 -2 7 -7 16 -10 8 -3 12 -2 9 4 -6 10 -25 14 -25 6z"/>
<path d="M4500 940 c-9 -6 -10 -10 -3 -10 6 0 15 5 18 10 8 12 4 12 -15 0z"/>
<path d="M4440 930 c0 -5 5 -10 10 -10 6 0 10 5 10 10 0 6 -4 10 -10 10 -5 0
-10 -4 -10 -10z"/>
<path d="M2506 886 c3 -8 13 -17 22 -21 13 -5 13 -2 -3 15 -21 24 -26 25 -19
6z"/>
<path d="M4230 891 c0 -17 18 -21 24 -6 3 9 0 15 -9 15 -8 0 -15 -4 -15 -9z"/>
<path d="M4426 884 c-6 -15 -4 -15 11 -3 10 7 20 15 22 16 2 2 -3 3 -11 3 -9
0 -19 -7 -22 -16z"/>
<path d="M4285 880 c-3 -5 -1 -10 4 -10 6 0 11 5 11 10 0 6 -2 10 -4 10 -3 0
-8 -4 -11 -10z"/>
<path d="M2554 859 c-13 -22 12 -26 41 -7 28 18 22 19 -22 1 -11 -4 -14 -3 -9
5 4 7 5 12 2 12 -3 0 -8 -5 -12 -11z"/>
<path d="M4149 843 c-1 -5 -1 -11 -1 -14 1 -4 -8 -4 -20 -1 -14 3 -19 1 -14
-6 12 -20 46 -14 46 8 0 19 -9 29 -11 13z"/>
<path d="M2595 830 c-3 -6 1 -7 9 -4 18 7 21 14 7 14 -6 0 -13 -4 -16 -10z"/>
<path d="M4335 820 c-33 -22 -29 -26 10 -8 14 6 25 15 25 20 0 11 -1 11 -35
-12z"/>
<path d="M2890 800 c-8 -5 -10 -10 -5 -10 6 0 17 5 25 10 8 5 11 10 5 10 -5 0
-17 -5 -25 -10z"/>
<path d="M4005 800 c-8 -13 5 -13 25 0 13 8 13 10 -2 10 -9 0 -20 -4 -23 -10z"/>
<path d="M4078 793 c7 -3 16 -2 19 1 4 3 -2 6 -13 5 -11 0 -14 -3 -6 -6z"/>
<path d="M4270 780 c-9 -6 -10 -10 -3 -10 6 0 15 5 18 10 8 12 4 12 -15 0z"/>
<path d="M4170 760 c-13 -8 -12 -10 3 -10 9 0 17 -4 17 -10 0 -5 8 -6 17 -3
14 5 14 8 2 11 -7 3 -16 9 -19 13 -3 4 -12 4 -20 -1z"/>
<path d="M4230 759 c0 -5 5 -7 10 -4 6 3 10 8 10 11 0 2 -4 4 -10 4 -5 0 -10
-5 -10 -11z"/>
<path d="M2745 740 c3 -5 11 -10 16 -10 6 0 7 5 4 10 -3 6 -11 10 -16 10 -6 0
-7 -4 -4 -10z"/>
<path d="M3840 740 c0 -5 5 -10 10 -10 6 0 10 5 10 10 0 6 -4 10 -10 10 -5 0
-10 -4 -10 -10z"/>
<path d="M3100 730 c34 -11 60 -11 35 0 -11 5 -29 8 -40 8 -16 0 -15 -2 5 -8z"/>
<path d="M3048 723 c7 -3 16 -2 19 1 4 3 -2 6 -13 5 -11 0 -14 -3 -6 -6z"/>
<path d="M3878 723 c7 -3 16 -2 19 1 4 3 -2 6 -13 5 -11 0 -14 -3 -6 -6z"/>
<path d="M3258 713 c7 -3 16 -2 19 1 4 3 -2 6 -13 5 -11 0 -14 -3 -6 -6z"/>
<path d="M3828 713 c6 -2 18 -2 25 0 6 3 1 5 -13 5 -14 0 -19 -2 -12 -5z"/>
<path d="M2825 700 c3 -5 11 -10 16 -10 6 0 7 5 4 10 -3 6 -11 10 -16 10 -6 0
-7 -4 -4 -10z"/>
<path d="M4058 703 c6 -2 18 -2 25 0 6 3 1 5 -13 5 -14 0 -19 -2 -12 -5z"/>
<path d="M3980 696 c0 -2 7 -7 16 -10 8 -3 12 -2 9 4 -6 10 -25 14 -25 6z"/>
<path d="M2900 670 c19 -13 30 -13 30 0 0 6 -10 10 -22 10 -19 0 -20 -2 -8
-10z"/>
<path d="M3950 670 c0 -11 48 -25 57 -16 4 3 -3 6 -15 6 -12 0 -22 5 -22 10 0
6 -4 10 -10 10 -5 0 -10 -4 -10 -10z"/>
<path d="M4035 670 c-16 -7 -17 -9 -3 -9 9 -1 20 4 23 9 7 11 7 11 -20 0z"/>
<path d="M2996 645 c4 -8 10 -15 15 -15 4 0 6 7 3 15 -4 8 -10 15 -15 15 -4 0
-6 -7 -3 -15z"/>
<path d="M3109 622 c11 -8 11 -10 0 -14 -8 -3 11 -3 41 -1 42 2 50 1 35 -7
-19 -9 -19 -10 -1 -7 11 1 21 8 24 15 2 8 -9 12 -36 12 -22 0 -49 3 -59 6 -13
4 -15 3 -4 -4z"/>
<path d="M3838 618 c5 -5 16 -8 23 -6 8 3 3 7 -10 11 -17 4 -21 3 -13 -5z"/>
<path d="M3893 623 c9 -2 23 -2 30 0 6 3 -1 5 -18 5 -16 0 -22 -2 -12 -5z"/>
<path d="M3068 613 c7 -3 16 -2 19 1 4 3 -2 6 -13 5 -11 0 -14 -3 -6 -6z"/>
<path d="M3393 613 c9 -2 25 -2 35 0 9 3 1 5 -18 5 -19 0 -27 -2 -17 -5z"/>
<path d="M3553 613 c9 -2 25 -2 35 0 9 3 1 5 -18 5 -19 0 -27 -2 -17 -5z"/>
<path d="M3641 616 c2 -2 18 -6 34 -10 22 -5 26 -4 15 4 -14 9 -59 15 -49 6z"/>
<path d="M3798 603 c7 -3 16 -2 19 1 4 3 -2 6 -13 5 -11 0 -14 -3 -6 -6z"/>
<path d="M3223 583 c9 -2 23 -2 30 0 6 3 -1 5 -18 5 -16 0 -22 -2 -12 -5z"/>
<path d="M3668 583 c12 -2 30 -2 40 0 9 3 -1 5 -23 4 -22 0 -30 -2 -17 -4z"/>
<path d="M3338 573 c7 -3 16 -2 19 1 4 3 -2 6 -13 5 -11 0 -14 -3 -6 -6z"/>
<path d="M3570 576 c0 -9 40 -13 46 -5 3 5 -6 9 -20 9 -14 0 -26 -2 -26 -4z"/>
</g>
</svg>
